<svg width="1130" height="225" viewBox="0 0 1130 225" fill="none" xmlns="http://www.w3.org/2000/svg">
<path d="M466.883 71.5932L464.761 94.5226C455.665 76.7221 434.745 67.0676 412.308 67.0676C370.164 67.0676 341.967 97.5396 341.967 144.304C341.967 190.766 367.435 224.557 412.005 224.557C436.261 224.557 454.149 212.79 463.548 197.403L465.974 220.635H500.538V71.5932H466.883ZM462.942 146.114C462.942 172.965 446.266 191.369 420.495 191.369C394.723 191.369 378.957 172.664 378.957 146.114C378.957 119.564 395.026 100.557 420.798 100.557C446.569 100.557 462.942 119.262 462.942 146.114Z" fill="#FA5757"/>
<path d="M563.475 220.635V180.508L585.305 157.88L624.417 220.635H666.865L611.077 130.727L668.077 71.5932H621.688L563.475 134.046V0.556641H526.788V220.635H563.475Z" fill="#FA5757"/>
<path d="M791.084 71.5932L788.962 94.5226C779.866 76.7221 758.945 67.0676 736.509 67.0676C694.365 67.0676 666.168 97.5396 666.168 144.304C666.168 190.766 691.636 224.557 736.206 224.557C760.461 224.557 778.35 212.79 787.749 197.403L790.175 220.635H824.739V71.5932H791.084ZM787.143 146.114C787.143 172.965 770.467 191.369 744.695 191.369C718.924 191.369 703.157 172.664 703.157 146.114C703.157 119.564 719.227 100.557 744.998 100.557C770.77 100.557 787.143 119.262 787.143 146.114Z" fill="#FA5757"/>
<path d="M843.457 175.379C843.457 204.644 867.106 224.557 904.399 224.557C941.389 224.557 967.161 205.851 967.161 175.681C967.161 152.751 954.427 141.287 929.261 135.554L902.277 129.218C889.543 126.201 882.872 120.771 882.872 112.323C882.872 101.16 891.362 94.5226 905.915 94.5226C920.165 94.5226 928.655 102.669 928.958 115.34H964.129C963.826 86.3766 941.086 67.0676 907.431 67.0676C872.867 67.0676 848.005 84.5664 848.005 113.832C848.005 137.666 861.042 150.338 888.027 156.372L915.011 162.708C928.352 165.725 932.293 171.155 932.293 178.698C932.293 189.559 922.894 196.498 905.612 196.498C888.633 196.498 878.931 188.352 878.628 175.379H843.457Z" fill="#FA5757"/>
<path d="M1024.76 220.635V139.175C1024.76 116.849 1038.4 100.557 1061.75 100.557C1080.55 100.557 1092.98 112.625 1092.98 137.666V220.635H1129.97V128.917C1129.97 90.2988 1110.56 67.0676 1073.57 67.0676C1052.05 67.0676 1034.46 76.4204 1025.06 90.9022V0.556641H987.768V220.635H1024.76Z" fill="#FA5757"/>
<path d="M172.102 149.223L214.358 223.544H129.001L86.2993 149.223H172.102Z" fill="url(#paint0_linear_247_978)"/>
<path d="M214.335 223.557L256.967 149.235L171.633 0.556641H86.2993L214.335 223.557Z" fill="#FA5757"/>
<path d="M43.6334 74.8594H128.967L43.6689 223.538L0.966797 149.217L43.6334 74.8594Z" fill="#FA5757"/>
<defs>
<linearGradient id="paint0_linear_247_978" x1="134.793" y1="171.897" x2="214.214" y2="223.678" gradientUnits="userSpaceOnUse">
<stop stop-color="#FA5757"/>
<stop offset="0.0240912" stop-color="#FA5757" stop-opacity="0.99831"/>
<stop offset="0.045037" stop-color="#FA5757" stop-opacity="0.992615"/>
<stop offset="0.064967" stop-color="#FA5757" stop-opacity="0.981977"/>
<stop offset="0.0860106" stop-color="#FA5757" stop-opacity="0.96546"/>
<stop offset="0.110297" stop-color="#FA5757" stop-opacity="0.942125"/>
<stop offset="0.139956" stop-color="#FA5757" stop-opacity="0.911036"/>
<stop offset="0.177117" stop-color="#FA5757" stop-opacity="0.871255"/>
<stop offset="0.223909" stop-color="#FA5757" stop-opacity="0.821844"/>
<stop offset="0.282462" stop-color="#FA5757" stop-opacity="0.761867"/>
<stop offset="0.354904" stop-color="#FA5757" stop-opacity="0.690386"/>
<stop offset="0.443367" stop-color="#FA5757" stop-opacity="0.606463"/>
<stop offset="0.549978" stop-color="#FA5757" stop-opacity="0.509162"/>
<stop offset="0.676868" stop-color="#FA5757" stop-opacity="0.397545"/>
<stop offset="0.826165" stop-color="#FA5757" stop-opacity="0.270674"/>
<stop offset="1" stop-color="#FA5757" stop-opacity="0.127613"/>
</linearGradient>
</defs>
</svg>
